<svg xmlns="http://www.w3.org/2000/svg" width="32" height="16" viewBox="0 0 32 16">
  <path id="Seta" d="M30.83,10.668l-5.161,4.957a1.338,1.338,0,0,1-.434.277,1.4,1.4,0,0,1-1.026,0,1.34,1.34,0,0,1-.434-.277,1.224,1.224,0,0,1,0-1.787l4.747-4.551H1.333a1.369,1.369,0,0,1-.943-.371A1.237,1.237,0,0,1,0,8.019H0a1.237,1.237,0,0,1,.391-.9,1.369,1.369,0,0,1,.943-.371H28.6L23.776,2.175a1.268,1.268,0,0,1-.292-.413,1.212,1.212,0,0,1,0-.975,1.268,1.268,0,0,1,.292-.413A1.34,1.34,0,0,1,24.21.1a1.4,1.4,0,0,1,1.026,0,1.338,1.338,0,0,1,.434.277L30.83,5.294a3.672,3.672,0,0,1,0,5.375Z" fill="#0083f6"/>
</svg>
