<svg xmlns="http://www.w3.org/2000/svg" width="292.652" height="80" viewBox="0 0 292.652 80">
  <path id="Logo_CA_Branco" data-name="Logo CA Branco" d="M181.608,78.1a17.988,17.988,0,0,1-2.436-1.46,2.878,2.878,0,0,1-1.206-2.149,2.977,2.977,0,0,1,.9-2.37l.993-.953a.709.709,0,0,1,.983.005,12.671,12.671,0,0,0,3.13,2.193,12.159,12.159,0,0,0,8.72.916,9.629,9.629,0,0,0,6.118-4.925,9.033,9.033,0,0,0,.909-3.169,14.3,14.3,0,0,1-17.52-4.03,12.847,12.847,0,0,1-2.845-6.812A13.882,13.882,0,0,1,183.4,43.5a13.684,13.684,0,0,1,9.993-4.141,13.884,13.884,0,0,1,8.424,2.758,8.112,8.112,0,0,1,3.258,6.509c-.027,17.008-.029,17.026-.034,17.05a14.313,14.313,0,0,1-1.493,6.042,14.852,14.852,0,0,1-9.416,7.652,16.873,16.873,0,0,1-4.578.631A17.886,17.886,0,0,1,181.608,78.1Zm5.548-30.843a8.714,8.714,0,0,0-2.465,7.779,7.538,7.538,0,0,0,1.525,3.619,8.68,8.68,0,0,0,7.178,3.656,8.525,8.525,0,0,0,5.928-2.275,1.433,1.433,0,0,0,.442-1.055V47.366a6.2,6.2,0,0,0-3.453-2.322,12.8,12.8,0,0,0-2.932-.368A8.493,8.493,0,0,0,187.156,47.254ZM6.35,61.356A20.95,20.95,0,0,1,0,46.046,20.955,20.955,0,0,1,6.35,30.735a20.982,20.982,0,0,1,15.322-6.343A20.842,20.842,0,0,1,34.94,28.9a2.613,2.613,0,0,1,.986,1.906A2.672,2.672,0,0,1,31.6,33.066a15.707,15.707,0,0,0-9.926-3.344A15.767,15.767,0,0,0,10.126,34.53a16.243,16.243,0,0,0,0,23.03A15.759,15.759,0,0,0,21.673,62.37,15.7,15.7,0,0,0,31.6,59.026a2.673,2.673,0,0,1,4.327,2.258,2.614,2.614,0,0,1-.986,1.906A20.854,20.854,0,0,1,21.673,67.7,20.984,20.984,0,0,1,6.35,61.356Zm112.2.84a12.842,12.842,0,0,1-2.836-6.8,13.873,13.873,0,0,1,4.046-11.853,13.682,13.682,0,0,1,9.994-4.141,13.88,13.88,0,0,1,8.422,2.759,8.11,8.11,0,0,1,3.258,6.509V65.62a.6.6,0,0,1-.635.572h-1.991a3.093,3.093,0,0,1-1.105-.2,1.518,1.518,0,0,0-1.293.074A14.3,14.3,0,0,1,118.547,62.2ZM123.511,47.3a8.71,8.71,0,0,0-2.465,7.782,7.511,7.511,0,0,0,1.52,3.611,8.689,8.689,0,0,0,7.185,3.658,8.53,8.53,0,0,0,5.927-2.272,1.436,1.436,0,0,0,.442-1.057V47.417a7.367,7.367,0,0,0-4.7-2.564,11.747,11.747,0,0,0-1.686-.126A8.473,8.473,0,0,0,123.511,47.3ZM43.537,63.491a14.134,14.134,0,0,1,0-20,14.163,14.163,0,0,1,20.008,0h0a14.138,14.138,0,0,1,0,20,14.164,14.164,0,0,1-20.01,0ZM47.3,47.258A8.82,8.82,0,0,0,59.78,59.726h0A8.82,8.82,0,0,0,47.3,47.258ZM239.264,57.1a10.462,10.462,0,1,1,10.463,10.472A10.469,10.469,0,0,1,239.264,57.1Zm39.209,10.461a10.762,10.762,0,0,1-9.991-6.758L249.8,14.145a1.09,1.09,0,0,1,1.015-1.494H260.8a15.353,15.353,0,0,1,14.253,9.641L292.573,66.07a1.092,1.092,0,0,1-1.013,1.5ZM93.416,66.34c-1.423,0-2.539-.77-2.539-1.753V52.516a8.075,8.075,0,0,0-2.167-5.653,6.941,6.941,0,0,0-10.378,0,8.038,8.038,0,0,0-2.167,5.656V64.587c0,.983-1.116,1.753-2.539,1.753H71.919a.7.7,0,0,1-.766-.642V52.516a13.376,13.376,0,0,1,3.612-9.426,11.728,11.728,0,0,1,17.515,0,13.388,13.388,0,0,1,3.612,9.426V65.7a.706.706,0,0,1-.783.642Zm128.264-.195a.653.653,0,0,1-.651-.651V28.607a2.688,2.688,0,0,1,5.377,0V63.55a2.6,2.6,0,0,1-2.6,2.595Zm-8.593,0a2.724,2.724,0,0,1-2.721-2.721V43.542a2.687,2.687,0,0,1,5.375,0V65.494a.652.652,0,0,1-.651.651Zm-110.237,0a.536.536,0,0,1-.537-.537V46.23h-1.441a1.3,1.3,0,0,1-1.3-1.3V42.157a1.3,1.3,0,0,1,1.3-1.3h1.441V27.295a1.373,1.373,0,0,1,1.372-1.372H105a2.688,2.688,0,0,1,2.687,2.685V40.859h3.667a1.115,1.115,0,0,1,1.116,1.114v3.139a1.118,1.118,0,0,1-1.116,1.118h-3.667V63.459A2.689,2.689,0,0,1,105,66.145Zm45.291-.009-2.955-.006a.435.435,0,0,1-.413-.574l13.445-39.672a3.12,3.12,0,0,1,2.955-2.117h.811a3.118,3.118,0,0,1,2.955,2.121l13.384,39.667c.114.581.005.575-.411.575l-3.592,0A2.741,2.741,0,0,1,171.7,64.21L168.557,54.3h-14.58l-3.211,9.926a2.747,2.747,0,0,1-2.622,1.906ZM161.374,31.2c-1.089,3.383-5.168,15.788-5.808,17.733h11.487c-.6-1.931-4.461-14.321-5.517-17.728a.09.09,0,0,0-.085-.065A.078.078,0,0,0,161.374,31.2Zm48.993,3.68V32.688a2.687,2.687,0,0,1,5.375,0V34.88a2.687,2.687,0,0,1-5.375,0ZM161.65,21.425a2.685,2.685,0,0,1,0-3.8l1.547-1.549a2.688,2.688,0,1,1,3.8,3.8l-1.554,1.549a2.691,2.691,0,0,1-3.8,0ZM271.688,7.459a5.491,5.491,0,1,1,5.132,3.527A5.491,5.491,0,0,1,271.688,7.459Z" fill="#fff"/>
</svg>
