<svg xmlns="http://www.w3.org/2000/svg" width="175.445" height="48" viewBox="0 0 175.445 48">
  <g id="Logo" transform="translate(-44.28 -34.57)">
    <path id="Caminho_25" data-name="Caminho 25" d="M82.376,70.4a8.483,8.483,0,1,0,0,12,8.481,8.481,0,0,0,0-12Zm-.71,6a5.122,5.122,0,0,1-1.547,3.741h0A5.3,5.3,0,1,1,81.666,76.4Zm30.041-6.912v1.887a.666.666,0,0,1-.671.666h-2.2V82.377a1.615,1.615,0,0,1-1.61,1.615h-1.308a.326.326,0,0,1-.321-.326V72.041h-.846a.778.778,0,0,1-.778-.769V69.6a.778.778,0,0,1,.778-.778h.866V60.683a.827.827,0,0,1,.822-.827h.788a1.615,1.615,0,0,1,1.61,1.615V68.84h2.2A.666.666,0,0,1,111.708,69.487ZM141.19,57.166a1.615,1.615,0,0,1,0-2.281l.929-.929a1.615,1.615,0,0,1,2.281,2.281l-.934.929a1.575,1.575,0,0,1-2.276,0Zm32.43,6.756v1.313a1.615,1.615,0,0,1-3.225,0V63.923a1.615,1.615,0,0,1,3.225,0Zm0,6.513V83.6a.394.394,0,0,1-.394.394h-1.2a1.639,1.639,0,0,1-1.634-1.634V70.431a1.615,1.615,0,0,1,3.225,0Zm6.392-8.96V82.46a1.561,1.561,0,0,1-1.557,1.557H177.18a.394.394,0,0,1-.394-.394V61.471a1.615,1.615,0,1,1,3.225,0ZM50.351,65.022a9.793,9.793,0,0,0,12.876,14.7,1.6,1.6,0,0,1,2.593,1.352,1.566,1.566,0,0,1-.593,1.143,12.5,12.5,0,0,1-7.948,2.709,12.995,12.995,0,1,1,0-25.989,12.5,12.5,0,0,1,7.953,2.709,1.571,1.571,0,0,1,.593,1.143,1.6,1.6,0,0,1-2.593,1.357,9.782,9.782,0,0,0-12.876.876ZM151.186,83.637l-8.026-23.8a1.863,1.863,0,0,0-1.771-1.27H140.9a1.868,1.868,0,0,0-1.771,1.27l-8.06,23.8a.272.272,0,0,0,.034.238.263.263,0,0,0,.214.107H133.1a1.654,1.654,0,0,0,1.571-1.143l1.946-5.959h8.756l1.882,5.944a1.644,1.644,0,0,0,1.576,1.153h2.15C151.19,83.983,151.254,83.988,151.186,83.637Zm-6.756-9.972h-6.893c.384-1.167,2.831-8.61,3.483-10.643a.044.044,0,0,1,.049-.034.049.049,0,0,1,.049.039C141.754,65.071,144.069,72.508,144.429,73.666ZM99.6,70.159a8.021,8.021,0,0,1,2.165,5.657v7.909a.423.423,0,0,1-.486.384h-1.017c-.851,0-1.518-.486-1.518-1.051V75.816a4.835,4.835,0,0,0-1.3-3.4,4.164,4.164,0,0,0-6.221,0,4.83,4.83,0,0,0-1.3,3.4v7.243c0,.589-.666,1.051-1.522,1.051H87.372a.428.428,0,0,1-.462-.384V75.816a8.026,8.026,0,0,1,2.169-5.657,7.019,7.019,0,0,1,10.5,0Zm27.517-.555a8.323,8.323,0,0,0-5.049-1.654,8.216,8.216,0,0,0-5.993,2.481,8.337,8.337,0,0,0-2.432,7.116,7.724,7.724,0,0,0,1.7,4.076,8.571,8.571,0,0,0,10.7,2.32.9.9,0,0,1,.793-.024,1.946,1.946,0,0,0,.666.122h1.192a.36.36,0,0,0,.379-.345V73.51a4.864,4.864,0,0,0-1.955-3.906Zm-1.25,3.152v6.966a.846.846,0,0,1-.263.632,5.107,5.107,0,0,1-3.551,1.362,5.21,5.21,0,0,1-4.31-2.194,4.49,4.49,0,0,1-.91-2.169,5.219,5.219,0,0,1,1.459-4.665,5.064,5.064,0,0,1,3.726-1.547,7.34,7.34,0,0,1,1.012.073,4.4,4.4,0,0,1,2.836,1.542Zm39.4-3.181a8.322,8.322,0,0,0-5.054-1.654,8.211,8.211,0,0,0-5.988,2.481,8.337,8.337,0,0,0-2.432,7.107A7.71,7.71,0,0,0,153.5,81.6,8.576,8.576,0,0,0,164,84.031a5.453,5.453,0,0,1-.545,1.9,5.764,5.764,0,0,1-3.668,2.953,7.3,7.3,0,0,1-5.224-.564,7.5,7.5,0,0,1-1.873-1.313.428.428,0,0,0-.593,0l-.593.574a1.78,1.78,0,0,0-.54,1.42,1.741,1.741,0,0,0,.72,1.289,11.09,11.09,0,0,0,1.459.876A10.672,10.672,0,0,0,157.9,92.31a10.24,10.24,0,0,0,2.748-.379,8.921,8.921,0,0,0,5.642-4.592,8.571,8.571,0,0,0,.9-3.624V73.5A4.864,4.864,0,0,0,165.263,69.575Zm-8.794,3.084a5.093,5.093,0,0,1,3.736-1.547,7.7,7.7,0,0,1,1.756.219,3.726,3.726,0,0,1,2.082,1.4V79.7a.851.851,0,0,1-.268.632,5.122,5.122,0,0,1-3.556,1.362,5.2,5.2,0,0,1-4.3-2.194A4.494,4.494,0,0,1,155,77.328a5.229,5.229,0,0,1,1.474-4.67Z" transform="translate(0 -9.74)" fill="#fff"/>
    <path id="Caminho_26" data-name="Caminho 26" d="M363.306,79.048l-11.2-28a.652.652,0,0,1,.608-.9h5.978a9.2,9.2,0,0,1,8.546,5.788l10.507,26.267a.657.657,0,0,1-.608.9h-7.846A6.445,6.445,0,0,1,363.306,79.048Z" transform="translate(-158.069 -8.002)" fill="#fff"/>
    <circle id="Elipse_4" data-name="Elipse 4" cx="6.28" cy="6.28" r="6.28" transform="translate(187.711 62.544)" fill="#fff"/>
    <circle id="Elipse_5" data-name="Elipse 5" cx="3.293" cy="3.293" r="3.293" transform="translate(206.939 34.57)" fill="#fff"/>
  </g>
</svg>
